<?xml version="1.0" encoding="UTF-8"?>
<svg version="1.1" xmlns="http://www.w3.org/2000/svg" width="245" height="240">
<path d="M0 0 C2.0558848 0.00314874 4.11030848 -0.02035102 6.16601562 -0.0456543 C19.06172659 -0.10898433 31.21285773 2.12970677 43.38476562 6.50317383 C44.22837646 6.80360596 45.0719873 7.10403809 45.94116211 7.41357422 C75.75889794 18.42978363 98.84826944 42.17338773 112.61914062 70.36645508 C114.61215468 74.80512997 116.15743442 79.37099612 117.63476562 84.00317383 C117.9984021 85.14206055 117.9984021 85.14206055 118.36938477 86.30395508 C121.57387529 96.84447637 122.67299866 106.99260868 122.63793945 117.9934082 C122.63479071 120.04929301 122.65829047 122.10371668 122.68359375 124.15942383 C122.74692379 137.0551348 120.50823269 149.20626594 116.13476562 161.37817383 C115.8343335 162.22178467 115.53390137 163.06539551 115.22436523 163.93457031 C104.20815583 193.75230614 80.46455172 216.84167765 52.27148438 230.61254883 C47.83280948 232.60556288 43.26694333 234.15084263 38.63476562 235.62817383 C37.87550781 235.87059814 37.11625 236.11302246 36.33398438 236.36279297 C25.79346308 239.5672835 15.64533077 240.66640686 4.64453125 240.63134766 C2.58864645 240.62819892 0.53422277 240.65169867 -1.52148438 240.67700195 C-14.41719534 240.74033199 -26.56832648 238.50164089 -38.74023438 234.12817383 C-39.58384521 233.8277417 -40.42745605 233.52730957 -41.29663086 233.21777344 C-71.11436669 222.20156403 -94.20373819 198.45795993 -107.97460938 170.26489258 C-109.96762343 165.82621768 -111.51290317 161.26035153 -112.99023438 156.62817383 C-113.23265869 155.86891602 -113.47508301 155.1096582 -113.72485352 154.32739258 C-116.92934404 143.78687128 -118.02846741 133.63873898 -117.9934082 122.63793945 C-117.99025946 120.58205465 -118.01375922 118.52763097 -118.0390625 116.47192383 C-118.10239254 103.57621286 -115.86370144 91.42508172 -111.49023438 79.25317383 C-111.03958618 77.98775757 -111.03958618 77.98775757 -110.57983398 76.69677734 C-99.56362458 46.87904151 -75.82002047 23.78967001 -47.62695312 10.01879883 C-43.18827823 8.02578477 -38.62241208 6.48050503 -33.99023438 5.00317383 C-33.23097656 4.76074951 -32.47171875 4.5183252 -31.68945312 4.26855469 C-21.14893183 1.06406416 -11.00079952 -0.03505921 0 0 Z " fill="#EFEFEF" transform="translate(117.677734375,-0.315673828125)"/>
<path d="M0 0 C13.02608636 10.51325268 27.31983195 23.92043336 32.75390625 40.22265625 C-33.90609375 40.22265625 -100.56609375 40.22265625 -169.24609375 40.22265625 C-156.14939338 14.0292555 -134.24340562 -6.80399813 -106.19628906 -16.48486328 C-69.48320849 -28.42117664 -31.1470485 -23.53030301 0 0 Z " fill="#1D1D1F" transform="translate(188.24609375,29.77734375)"/>
<path d="M0 0 C66.66 0 133.32 0 202 0 C187.74841563 28.50316873 164.36608892 47.82048314 134.3984375 58.25390625 C106.21245099 66.87512786 75.31967616 64.39827255 49.1875 50.6875 C29.63708933 40.04560885 7.32061202 21.96183606 0 0 Z " fill="#FEB005" transform="translate(19,170)"/>
</svg>
